<?xml version="1.0" encoding="UTF-8" standalone="no"?>
<!-- Generator: Adobe Illustrator 18.1.1, SVG Export Plug-In . SVG Version: 6.00 Build 0)  -->

<svg
   xmlns:dc="http://purl.org/dc/elements/1.1/"
   xmlns:cc="http://creativecommons.org/ns#"
   xmlns:rdf="http://www.w3.org/1999/02/22-rdf-syntax-ns#"
   xmlns:svg="http://www.w3.org/2000/svg"
   xmlns="http://www.w3.org/2000/svg"
   xmlns:sodipodi="http://sodipodi.sourceforge.net/DTD/sodipodi-0.dtd"
   xmlns:inkscape="http://www.inkscape.org/namespaces/inkscape"
   version="1.1"
   id="Capa_1"
   x="0px"
   y="0px"
   viewBox="0 0 471.133 471.133"
   style="enable-background:new 0 0 471.133 471.133;"
   xml:space="preserve"
   sodipodi:docname="015-dog-pawprint.svg"
   inkscape:version="0.92.1 r15371"><metadata
     id="metadata51"><rdf:RDF><cc:Work
         rdf:about=""><dc:format>image/svg+xml</dc:format><dc:type
           rdf:resource="http://purl.org/dc/dcmitype/StillImage" /><dc:title></dc:title></cc:Work></rdf:RDF></metadata><defs
     id="defs49" /><sodipodi:namedview
     pagecolor="#ffffff"
     bordercolor="#666666"
     borderopacity="1"
     objecttolerance="10"
     gridtolerance="10"
     guidetolerance="10"
     inkscape:pageopacity="0"
     inkscape:pageshadow="2"
     inkscape:window-width="640"
     inkscape:window-height="480"
     id="namedview47"
     showgrid="false"
     inkscape:zoom="0.50092013"
     inkscape:cx="239.55915"
     inkscape:cy="205.6216"
     inkscape:window-x="156"
     inkscape:window-y="28"
     inkscape:window-maximized="0"
     inkscape:current-layer="Capa_1" /><path
     style="fill:#9ed36a;fill-opacity:1"
     d="m 235.567,204.5 c 14,0 26.5,4.333 37.5,13 11,8.667 18.5,19.667 22.5,33 0.668,3.334 2.334,11.167 5,23.5 2.668,12.334 4.834,21.167 6.5,26.5 1.668,5.333 5.334,11.833 11,19.5 5.668,7.667 13.168,13.833 22.501,18.5 16.674,5.333 28.5,12.5 35.5,21.5 7,9 10.5,22.833 10.5,41.5 0,16 -5.832,30.833 -17.5,44.5 -11.666,13.666 -25.834,21.5 -42.501,23.5 -34,4.666 -64.332,-0.667 -91,-16 -26.667,15.333 -57,20.666 -91,16 -16.667,-2 -30.833,-9.834 -42.5,-23.5 -11.667,-13.667 -17.5,-28.5 -17.5,-44.5 0,-18 3.667,-31.667 11,-41 7.333,-9.333 19.333,-17 36,-23 10,-4.667 17.833,-10.834 23.5,-18.5 5.668,-7.667 9.335,-14.667 11,-21 1.667,-6.333 3.5,-14.833 5.5,-25.5 2,-10.667 3.667,-18.667 5,-24 3.333,-12.667 10.5,-23.167 21.5,-31.5 11,-8.333 23.5,-12.5 37.5,-12.5 z"
     id="path2"
     inkscape:connector-curvature="0" /><path
     style="fill:#9ed36a;fill-opacity:1"
     d="m 423.567,181.5 c -4.668,-4 -14.668,-0.333 -30,11 -15.334,11.333 -27,22 -35,32 -8.668,10 -13,21.833 -13,35.5 0,13.667 4.332,25.5 13,35.5 8.666,10 19.332,15 32,15 8.666,0 16.832,-3 24.5,-9 7.666,-6 13.166,-13.667 16.5,-23 6.666,-16 9.5,-34 8.5,-54 -1,-20 -6.5,-34.333 -16.5,-43 z"
     id="path4"
     inkscape:connector-curvature="0" /><path
     style="fill:#9ed36a;fill-opacity:1"
     d="m 47.567,181.5 c -10,8.667 -15.5,23 -16.5,43 -1,20 1.833,38 8.5,54 3.333,9.333 8.833,17 16.5,23 7.667,6 15.833,9 24.5,9 12.667,0 23.333,-5 32,-15 8.667,-10 13,-21.833 13,-35.5 0,-13.667 -4.333,-25.5 -13,-35.5 -8,-10 -19.667,-20.667 -35,-32 -15.334,-11.333 -25.334,-15 -30,-11 z"
     id="path6"
     inkscape:connector-curvature="0" /><path
     style="fill:#9ed36a;fill-opacity:1"
     d="m 290.564,0.5 c 35.334,6 59.003,28 71.003,66 10.666,34.667 7.666,64.333 -9,89 -12,18.667 -28.335,26 -49.001,22 -12,-2 -22.002,-7.833 -30.002,-17.5 -8,-9.667 -12.668,-20.833 -14,-33.5 -1.334,-10 -2,-21 -2,-33 0,-12 0.5,-26 1.5,-42 1,-16 4.166,-29 9.5,-39 5.339,-10 12.668,-14 22,-12 z"
     id="path8"
     inkscape:connector-curvature="0" /><path
     style="fill:#9ed36a;fill-opacity:1"
     d="m 180.567,0.5 c 9.333,-2 16.667,2 22,12 5.333,10 8.5,23 9.5,39 1,16 1.5,30 1.5,42 0,12 -0.667,23 -2,33 -1.333,12.667 -6,23.833 -14,33.5 -8,9.667 -18,15.5 -30,17.5 -27.333,4.667 -46.333,-8.333 -57,-39 -11.333,-32 -8.667,-63.333 8,-94 14,-24.667 34.667,-39.333 62,-44 z"
     id="path10"
     inkscape:connector-curvature="0" /><g
     id="g16" /><g
     id="g18" /><g
     id="g20" /><g
     id="g22" /><g
     id="g24" /><g
     id="g26" /><g
     id="g28" /><g
     id="g30" /><g
     id="g32" /><g
     id="g34" /><g
     id="g36" /><g
     id="g38" /><g
     id="g40" /><g
     id="g42" /><g
     id="g44" /></svg>