<?xml version="1.0" encoding="UTF-8" standalone="no"?>
<!-- Generator: Adobe Illustrator 19.0.0, SVG Export Plug-In . SVG Version: 6.00 Build 0)  -->

<svg
   xmlns:dc="http://purl.org/dc/elements/1.1/"
   xmlns:cc="http://creativecommons.org/ns#"
   xmlns:rdf="http://www.w3.org/1999/02/22-rdf-syntax-ns#"
   xmlns:svg="http://www.w3.org/2000/svg"
   xmlns="http://www.w3.org/2000/svg"
   xmlns:sodipodi="http://sodipodi.sourceforge.net/DTD/sodipodi-0.dtd"
   xmlns:inkscape="http://www.inkscape.org/namespaces/inkscape"
   version="1.1"
   id="Layer_1"
   x="0px"
   y="0px"
   viewBox="0 0 511.843 511.843"
   style="enable-background:new 0 0 511.843 511.843;"
   xml:space="preserve"
   sodipodi:docname="002-recycling-2.svg"
   inkscape:version="0.92.1 r15371"><metadata
     id="metadata53"><rdf:RDF><cc:Work
         rdf:about=""><dc:format>image/svg+xml</dc:format><dc:type
           rdf:resource="http://purl.org/dc/dcmitype/StillImage" /><dc:title></dc:title></cc:Work></rdf:RDF></metadata><defs
     id="defs51" /><sodipodi:namedview
     pagecolor="#ffffff"
     bordercolor="#666666"
     borderopacity="1"
     objecttolerance="10"
     gridtolerance="10"
     guidetolerance="10"
     inkscape:pageopacity="0"
     inkscape:pageshadow="2"
     inkscape:window-width="1440"
     inkscape:window-height="845"
     id="namedview49"
     showgrid="false"
     inkscape:zoom="0.4610789"
     inkscape:cx="708.69406"
     inkscape:cy="225.6676"
     inkscape:window-x="0"
     inkscape:window-y="27"
     inkscape:window-maximized="1"
     inkscape:current-layer="Layer_1" /><path
     inkscape:connector-curvature="0"
     id="path2"
     d="m 418.165,194.234 c 0,0 -28.991,-166.449 -120.557,-179.195 -56.14,-7.81 -108.952,19.213 -116.855,75.321 v 0 c -7.732,56.124 30.225,81.709 90.191,75.977 92.035,-8.779 147.221,27.897 147.221,27.897 z"
     style="fill:#9ed36a;fill-opacity:1" /><path
     inkscape:connector-curvature="0"
     id="path4"
     d="m 269.961,475.602 c 0,0 158.639,58.092 215.465,-14.824 34.833,-44.705 37.832,-103.952 -6.795,-138.848 v 0 c -44.752,-34.756 -85.88,-14.699 -110.919,40.112 -38.394,84.084 -97.751,113.56 -97.751,113.56 z"
     style="fill:#9ed36a;fill-opacity:1" /><path
     inkscape:connector-curvature="0"
     id="path6"
     d="m 100.808,204.106 c 0,0 -129.632,108.341 -94.893,194.003 21.29,52.531 71.103,84.756 123.65,63.543 v 0 C 182.033,440.283 185.22,394.626 150.277,345.547 96.653,270.242 100.808,204.106 100.808,204.106 Z"
     style="fill:#9ed36a;fill-opacity:1" /><path
     inkscape:connector-curvature="0"
     id="path10"
     d="m 304.387,89.859 0.016,-0.016 C 301.717,88.25 237.845,51.105 177.005,74.957 c -38.52,15.12 -66.402,50.859 -82.865,106.249 0,0.016 -0.016,0.031 -0.016,0.047 0,0.016 0,0.031 -0.016,0.031 v 0 c -0.953,3.265 -0.359,6.936 1.952,9.778 3.718,4.561 10.435,5.249 15.011,1.531 1.718,-1.406 2.89,-3.249 3.483,-5.233 v 0 c 14.48,-48.75 38.066,-79.882 70.119,-92.503 51.062,-20.087 108.295,12.996 108.874,13.34 v 0 c 3.733,2.203 8.592,1.984 12.152,-0.906 4.562,-3.717 5.248,-10.434 1.531,-14.995 -0.812,-1.015 -1.781,-1.812 -2.843,-2.437 z"
     style="fill:#9ed36a;fill-opacity:1" /><path
     inkscape:connector-curvature="0"
     id="path12"
     d="m 443.251,201.482 c 0,0 -0.016,-0.016 -0.03,-0.031 -0.016,-0.016 -0.016,-0.016 -0.031,-0.031 v 0 c -2.344,-2.468 -5.812,-3.765 -9.436,-3.187 -5.811,0.937 -9.762,6.404 -8.825,12.215 0.359,2.203 1.358,4.139 2.78,5.639 v 0.016 c 34.989,36.911 50.141,72.884 45.049,106.953 -8.123,54.279 -65.402,87.301 -65.98,87.629 v 0 c -3.764,2.141 -6.014,6.451 -5.295,10.98 0.938,5.811 6.42,9.764 12.23,8.826 1.281,-0.203 2.453,-0.641 3.531,-1.234 v 0 c 2.732,-1.531 66.822,-38.254 76.586,-102.891 6.186,-40.91 -10.841,-82.928 -50.579,-124.884 z"
     style="fill:#9ed36a;fill-opacity:1" /><path
     inkscape:connector-curvature="0"
     id="path14"
     d="m 252.949,470.884 c -2.092,-0.796 -4.264,-0.89 -6.279,-0.406 v 0 C 197.216,482.319 158.462,477.445 131.518,456.014 88.562,421.836 88.609,355.716 88.625,355.061 h -0.016 c 0.047,-4.344 -2.562,-8.436 -6.857,-10.076 -5.498,-2.093 -11.668,0.672 -13.761,6.17 -0.453,1.219 -0.672,2.453 -0.688,3.672 v 0 c -0.047,3.123 -0.281,77.008 50.813,117.775 21.29,16.996 48.032,25.523 79.882,25.523 16.495,0 34.38,-2.295 53.577,-6.888 h 0.016 c 0.016,-0.016 0.031,-0.016 0.031,-0.016 h 0.016 c 3.312,-0.797 6.186,-3.155 7.483,-6.576 2.092,-5.498 -0.673,-11.668 -6.172,-13.761 z"
     style="fill:#9ed36a;fill-opacity:1" /><g
     id="g18" /><g
     id="g20" /><g
     id="g22" /><g
     id="g24" /><g
     id="g26" /><g
     id="g28" /><g
     id="g30" /><g
     id="g32" /><g
     id="g34" /><g
     id="g36" /><g
     id="g38" /><g
     id="g40" /><g
     id="g42" /><g
     id="g44" /><g
     id="g46" /><path
     style="fill:#ffffff;fill-opacity:1"
     d="M 77.576172 344.29297 C 73.423281 344.44536 69.559984 347.0308 67.990234 351.1543 C 67.537234 352.3733 67.318734 353.60717 67.302734 354.82617 C 67.25785 357.80859 67.046748 425.32409 111.52734 466.90234 C 117.47755 465.82668 123.50186 464.09979 129.56445 461.65234 C 131.63411 460.80942 133.61818 459.92308 135.53516 459.00586 C 134.17138 458.0434 132.82579 457.05422 131.51758 456.01367 C 88.561578 421.83567 88.609 355.71555 88.625 355.06055 L 88.609375 355.06055 C 88.656375 350.71655 86.046953 346.62438 81.751953 344.98438 C 80.377453 344.46112 78.960469 344.24217 77.576172 344.29297 z "
     id="path7434" /><path
     style="fill:#ffffff;fill-opacity:1"
     d="M 219.45508 66.994141 C 208.33154 67.100815 196.77803 68.588554 185.22852 72.103516 C 183.18304 77.79685 181.66628 83.881916 180.75391 90.359375 C 180.44934 92.570094 180.22282 94.727845 180.05859 96.84375 C 181.57856 96.141823 183.11367 95.47174 184.67383 94.857422 C 235.73583 74.770422 292.96787 107.85327 293.54688 108.19727 C 297.27988 110.40027 302.13922 110.18102 305.69922 107.29102 C 310.26122 103.57402 310.94747 96.857875 307.23047 92.296875 C 306.41847 91.281875 305.44872 90.484375 304.38672 89.859375 L 304.40234 89.84375 C 302.34587 88.624109 264.42303 66.562901 219.45508 66.994141 z "
     id="path7442" /><path
     style="fill:#ffffff;fill-opacity:1"
     d="M 473.34375 318.07422 C 473.19186 319.73905 473.00531 321.4007 472.75781 323.05664 C 464.63481 377.33564 407.35534 410.35755 406.77734 410.68555 C 403.01334 412.82655 400.76342 417.13506 401.48242 421.66406 C 402.42042 427.47506 407.90289 431.42823 413.71289 430.49023 C 414.99389 430.28723 416.16614 429.85081 417.24414 429.25781 C 419.85318 427.79572 478.41857 394.23595 492.18945 334.92188 C 488.28485 330.30824 483.77865 325.95499 478.63086 321.92969 C 476.86197 320.55591 475.10054 319.27797 473.34375 318.07422 z "
     id="path7447" /></svg>