<?xml version="1.0" encoding="UTF-8" standalone="no"?>
<!-- Generator: Adobe Illustrator 19.0.0, SVG Export Plug-In . SVG Version: 6.00 Build 0)  -->

<svg
   xmlns:dc="http://purl.org/dc/elements/1.1/"
   xmlns:cc="http://creativecommons.org/ns#"
   xmlns:rdf="http://www.w3.org/1999/02/22-rdf-syntax-ns#"
   xmlns:svg="http://www.w3.org/2000/svg"
   xmlns="http://www.w3.org/2000/svg"
   xmlns:sodipodi="http://sodipodi.sourceforge.net/DTD/sodipodi-0.dtd"
   xmlns:inkscape="http://www.inkscape.org/namespaces/inkscape"
   version="1.1"
   id="Layer_1"
   x="0px"
   y="0px"
   viewBox="0 0 511.999 511.999"
   style="enable-background:new 0 0 511.999 511.999;"
   xml:space="preserve"
   sodipodi:docname="045-leaf-1.svg"
   inkscape:version="0.92.1 r15371"><metadata
     id="metadata55"><rdf:RDF><cc:Work
         rdf:about=""><dc:format>image/svg+xml</dc:format><dc:type
           rdf:resource="http://purl.org/dc/dcmitype/StillImage" /><dc:title></dc:title></cc:Work></rdf:RDF></metadata><defs
     id="defs53" /><sodipodi:namedview
     pagecolor="#ffffff"
     bordercolor="#666666"
     borderopacity="1"
     objecttolerance="10"
     gridtolerance="10"
     guidetolerance="10"
     inkscape:pageopacity="0"
     inkscape:pageshadow="2"
     inkscape:window-width="1440"
     inkscape:window-height="845"
     id="namedview51"
     showgrid="false"
     inkscape:zoom="0.46093841"
     inkscape:cx="303.79199"
     inkscape:cy="194.24138"
     inkscape:window-x="0"
     inkscape:window-y="27"
     inkscape:window-maximized="1"
     inkscape:current-layer="Layer_1" /><g
     id="g7443"><path
       id="path2"
       d="M270.365,442.023c-51.341,0-102.682-19.541-141.764-58.629l0,0  c-37.809-37.809-58.64-88.16-58.64-141.769s20.83-103.954,58.64-141.764C238.876-10.425,485.247-0.015,495.635,0.469  c8.604,0.413,15.489,7.293,15.892,15.897c0.5,10.431,10.899,256.743-99.387,367.028  C373.059,422.476,321.718,442.023,270.365,442.023z"
       style="fill:#9ed36a;fill-opacity:1" /><path
       style="fill:#78b838;fill-opacity:1"
       d="m 270.365,442.023 c 51.352,0 102.693,-19.547 141.775,-58.629 C 522.426,273.108 512.027,26.798 511.527,16.366 511.325,12.062 509.501,8.19 506.653,5.343 L 128.602,383.394 c 39.082,39.088 90.423,58.629 141.763,58.629 z"
       id="path4"
       inkscape:connector-curvature="0" /><path
       style="fill:#76b737;fill-opacity:1"
       d="m 294.002,234.706 c -9.224,0 -16.708,-7.478 -16.708,-16.708 V 99.855 c 0,-9.229 7.484,-16.708 16.708,-16.708 9.224,0 16.708,7.478 16.708,16.708 v 118.144 c 0,9.229 -7.484,16.707 -16.708,16.707 z"
       id="path6"
       inkscape:connector-curvature="0" /><path
       id="path10"
       d="M412.141,234.706H294.002c-9.224,0-16.708-7.478-16.708-16.708c0-9.229,7.484-16.708,16.708-16.708  h118.139c9.224,0,16.708,7.478,16.708,16.708C428.849,227.228,421.365,234.706,412.141,234.706z"
       style="fill:#6da732;fill-opacity:1" /><path
       id="path12"
       d="M187.676,341.032c-9.224,0-16.708-7.478-16.708-16.708V206.181c0-9.229,7.484-16.708,16.708-16.708  c9.224,0,16.708,7.478,16.708,16.708v118.144C204.384,333.554,196.9,341.032,187.676,341.032z"
       style="fill:#76b737;fill-opacity:1" /><path
       id="path14"
       d="M305.816,341.032H187.676c-9.224,0-16.708-7.478-16.708-16.708c0-9.229,7.484-16.708,16.708-16.708  h118.138c9.224,0,16.708,7.478,16.708,16.708C322.522,333.554,315.039,341.032,305.816,341.032z"
       style="fill:#6da732;fill-opacity:1" /><path
       id="path16"
       d="M16.707,511.996c-4.275,0-8.55-1.632-11.812-4.895c-6.526-6.52-6.526-17.104,0-23.626L388.516,99.861  c6.526-6.526,17.1-6.526,23.626,0c6.526,6.52,6.526,17.104,0,23.626L28.519,507.102C25.257,510.365,20.982,511.996,16.707,511.996z"
       style="fill:#76b737;fill-opacity:1" /><path
       id="path18"
       d="M16.707,511.996c4.275,0,8.55-1.632,11.812-4.895l383.622-383.615c6.526-6.52,6.526-17.104,0-23.626  c0-0.001-0.002-0.001-0.002-0.001L4.894,507.102C8.157,510.365,12.432,511.996,16.707,511.996z"
       style="fill:#6da732;fill-opacity:1" /></g><g
     id="g20" /><g
     id="g22" /><g
     id="g24" /><g
     id="g26" /><g
     id="g28" /><g
     id="g30" /><g
     id="g32" /><g
     id="g34" /><g
     id="g36" /><g
     id="g38" /><g
     id="g40" /><g
     id="g42" /><g
     id="g44" /><g
     id="g46" /><g
     id="g48" /></svg>