<?xml version="1.0" encoding="UTF-8" standalone="no"?>
<!-- Generator: Adobe Illustrator 19.0.0, SVG Export Plug-In . SVG Version: 6.00 Build 0)  -->

<svg
   xmlns:dc="http://purl.org/dc/elements/1.1/"
   xmlns:cc="http://creativecommons.org/ns#"
   xmlns:rdf="http://www.w3.org/1999/02/22-rdf-syntax-ns#"
   xmlns:svg="http://www.w3.org/2000/svg"
   xmlns="http://www.w3.org/2000/svg"
   xmlns:sodipodi="http://sodipodi.sourceforge.net/DTD/sodipodi-0.dtd"
   xmlns:inkscape="http://www.inkscape.org/namespaces/inkscape"
   version="1.1"
   id="Layer_1"
   x="0px"
   y="0px"
   viewBox="0 0 511.998 511.998"
   style="enable-background:new 0 0 511.998 511.998;"
   xml:space="preserve"
   sodipodi:docname="031-pool.svg"
   inkscape:version="0.92.1 r15371"><metadata
     id="metadata55"><rdf:RDF><cc:Work
         rdf:about=""><dc:format>image/svg+xml</dc:format><dc:type
           rdf:resource="http://purl.org/dc/dcmitype/StillImage" /><dc:title></dc:title></cc:Work></rdf:RDF></metadata><defs
     id="defs53" /><sodipodi:namedview
     pagecolor="#ffffff"
     bordercolor="#666666"
     borderopacity="1"
     objecttolerance="10"
     gridtolerance="10"
     guidetolerance="10"
     inkscape:pageopacity="0"
     inkscape:pageshadow="2"
     inkscape:window-width="1440"
     inkscape:window-height="845"
     id="namedview51"
     showgrid="false"
     inkscape:zoom="0.32593331"
     inkscape:cx="520.49593"
     inkscape:cy="122.05817"
     inkscape:window-x="0"
     inkscape:window-y="27"
     inkscape:window-maximized="1"
     inkscape:current-layer="Layer_1" /><path
     style="fill:#44691f;fill-opacity:1"
     d="M131.595,384.129c-11.384,0-20.611-9.228-20.611-20.611V146.735  c0-44.942,36.564-81.505,81.506-81.505c11.384,0,20.611,9.228,20.611,20.611s-9.228,20.611-20.611,20.611  c-22.212,0-40.283,18.071-40.283,40.282v216.782C152.207,374.901,142.979,384.129,131.595,384.129z"
     id="path2" /><path
     inkscape:connector-curvature="0"
     id="path4"
     d="M 365.336,180.744 H 154.269 c -11.384,0 -20.611,-9.228 -20.611,-20.611 0,-11.384 9.228,-20.611 20.611,-20.611 h 211.067 z"
     style="fill:#5e8e2b;fill-opacity:1" /><path
     inkscape:connector-curvature="0"
     id="path6"
     d="M 365.336,279.945 H 154.269 c -11.384,0 -20.611,-9.228 -20.611,-20.611 0,-11.384 9.228,-20.611 20.611,-20.611 h 211.067 z"
     style="fill:#5e8e2b;fill-opacity:1" /><rect
     x="314.653"
     y="238.72"
     style="opacity:0.1;enable-background:new;fill:#000000;fill-opacity:1"
     width="50.683"
     height="41.223"
     id="rect10" /><path
     style="opacity:0.1;enable-background:new;fill:#000000;fill-opacity:1"
     d="M314.649,146.735v34.009h50.686v-41.223h-50.448  C314.736,141.907,314.649,144.311,314.649,146.735z"
     id="path12" /><path
     style="fill:#44691f;fill-opacity:1"
     d="M366.179,384.129c-11.384,0-20.611-9.228-20.611-20.611V146.735  c0-44.942,36.564-81.505,81.506-81.505c11.384,0,20.611,9.228,20.611,20.611s-9.228,20.611-20.611,20.611  c-22.212,0-40.283,18.071-40.283,40.282v216.782C386.79,374.901,377.562,384.129,366.179,384.129z"
     id="path14" /><path
     style="fill:#6ca732;fill-opacity:1"
     d="M486.438,358.279H23.596L0,384.031v51.505c22.081-14.975,51.062-14.975,73.143,0l0,0  c22.082,14.975,51.062,14.975,73.143,0l0,0c22.082-14.975,51.062-14.975,73.143,0l0,0c22.081,14.975,51.062,14.975,73.143,0l0,0  c22.082-14.975,51.062-14.975,73.143,0l0,0c22.082,14.975,51.062,14.975,73.143,0l0,0c22.082-14.975,51.062-14.975,73.143,0v-51.505  L486.438,358.279z"
     id="path16" /><path
     style="fill:#9ed36a;fill-opacity:1"
     d="M0,332.527c22.081-14.975,51.062-14.975,73.143,0l0,0c22.081,14.975,51.062,14.975,73.143,0l0,0  c22.081-14.975,51.062-14.975,73.143,0l0,0c22.081,14.975,51.062,14.975,73.143,0l0,0c22.081-14.975,51.062-14.975,73.143,0l0,0  c22.081,14.975,51.062,14.975,73.143,0l0,0c22.081-14.975,51.062-14.975,73.143,0v51.505c-22.081-14.975-51.062-14.975-73.143,0l0,0  c-22.081,14.975-51.062,14.975-73.143,0l0,0c-22.081-14.975-51.062-14.975-73.143,0l0,0c-22.081,14.975-51.062,14.975-73.143,0l0,0  c-22.081-14.975-51.062-14.975-73.143,0l0,0c-22.081,14.975-51.062,14.975-73.143,0l0,0c-22.081-14.975-51.062-14.975-73.143,0  L0,332.527L0,332.527z"
     id="path18" /><g
     id="g20" /><g
     id="g22" /><g
     id="g24" /><g
     id="g26" /><g
     id="g28" /><g
     id="g30" /><g
     id="g32" /><g
     id="g34" /><g
     id="g36" /><g
     id="g38" /><g
     id="g40" /><g
     id="g42" /><g
     id="g44" /><g
     id="g46" /><g
     id="g48" /></svg>