<?xml version="1.0" encoding="UTF-8" standalone="no"?>
<!-- Generator: Adobe Illustrator 19.0.0, SVG Export Plug-In . SVG Version: 6.00 Build 0)  -->

<svg
   xmlns:dc="http://purl.org/dc/elements/1.1/"
   xmlns:cc="http://creativecommons.org/ns#"
   xmlns:rdf="http://www.w3.org/1999/02/22-rdf-syntax-ns#"
   xmlns:svg="http://www.w3.org/2000/svg"
   xmlns="http://www.w3.org/2000/svg"
   xmlns:sodipodi="http://sodipodi.sourceforge.net/DTD/sodipodi-0.dtd"
   xmlns:inkscape="http://www.inkscape.org/namespaces/inkscape"
   version="1.1"
   id="Layer_1"
   x="0px"
   y="0px"
   viewBox="0 0 512 512"
   style="enable-background:new 0 0 512 512;"
   xml:space="preserve"
   sodipodi:docname="037-wait.svg"
   inkscape:version="0.92.1 r15371"><metadata
     id="metadata61"><rdf:RDF><cc:Work
         rdf:about=""><dc:format>image/svg+xml</dc:format><dc:type
           rdf:resource="http://purl.org/dc/dcmitype/StillImage" /><dc:title></dc:title></cc:Work></rdf:RDF></metadata><defs
     id="defs59" /><sodipodi:namedview
     pagecolor="#ffffff"
     bordercolor="#666666"
     borderopacity="1"
     objecttolerance="10"
     gridtolerance="10"
     guidetolerance="10"
     inkscape:pageopacity="0"
     inkscape:pageshadow="2"
     inkscape:window-width="1440"
     inkscape:window-height="845"
     id="namedview57"
     showgrid="false"
     inkscape:zoom="0.23046875"
     inkscape:cx="575.51286"
     inkscape:cy="386.84105"
     inkscape:window-x="0"
     inkscape:window-y="27"
     inkscape:window-maximized="1"
     inkscape:current-layer="Layer_1" /><g
     id="g7456"><path
       style="fill:#9ed36a;fill-opacity:1"
       d="M 379.586,0 H 132.414 c -4.875,0 -8.828,3.953 -8.828,8.828 v 8.828 c 0,4.875 3.953,8.828 8.828,8.828 h 247.172 c 4.875,0 8.828,-3.953 8.828,-8.828 V 8.828 C 388.414,3.953 384.461,0 379.586,0 Z"
       id="path2"
       inkscape:connector-curvature="0" /><path
       style="fill:#9ed36a;fill-opacity:1"
       d="m 132.414,512 h 247.172 c 4.875,0 8.828,-3.953 8.828,-8.828 v -8.828 c 0,-4.875 -3.953,-8.828 -8.828,-8.828 H 132.414 c -4.875,0 -8.828,3.953 -8.828,8.828 v 8.828 c 0,4.875 3.953,8.828 8.828,8.828 z"
       id="path4"
       inkscape:connector-curvature="0" /><path
       id="path8"
       d="M289.443,238.105l66.941-73.026c14.923-16.281,23.202-37.564,23.202-59.649V26.483H132.414v78.947  c0,22.086,8.279,43.369,23.202,59.649l66.941,73.026c4.477,4.884,6.961,11.268,6.961,17.895l0,0c0,6.626-2.484,13.011-6.961,17.895  l-66.94,73.025c-14.924,16.281-23.203,37.565-23.203,59.65v78.947h247.172V406.57c0-22.086-8.279-43.37-23.203-59.65l-66.94-73.025  c-4.477-4.884-6.961-11.268-6.961-17.895l0,0C282.483,249.374,284.967,242.989,289.443,238.105z"
       style="fill:#c6e5a8;fill-opacity:1" /><path
       id="path10"
       d="M236.975,346.92l21.516-73.025c1.439-4.884,2.238-11.27,2.238-17.895  c0-6.626-0.799-13.011-2.237-17.895l-21.517-73.026c-4.797-16.28-7.458-37.564-7.458-59.649V26.483h-97.103v78.947  c0,22.086,8.278,43.369,23.202,59.649l66.941,73.026c4.477,4.884,6.961,11.268,6.961,17.895c0,6.625-2.484,13.011-6.961,17.895  l-66.94,73.025c-14.924,16.28-23.203,37.565-23.203,59.65v78.947h97.103v-78.946C229.517,384.484,232.179,363.2,236.975,346.92z"
       style="fill:#bde198;fill-opacity:1" /><path
       style="fill:#75b436;fill-opacity:1"
       d="M 220.69,17.655 V 8.828 C 220.69,3.953 224.643,0 229.518,0 h -97.103 c -4.875,0 -8.828,3.953 -8.828,8.828 v 8.828 c 0,4.875 3.953,8.828 8.828,8.828 h 97.103 c -4.877,-0.001 -8.828,-3.954 -8.828,-8.829 z"
       id="path12"
       inkscape:connector-curvature="0" /><path
       style="fill:#75b436;fill-opacity:1"
       d="m 220.69,503.172 v -8.828 c 0,-4.875 3.953,-8.828 8.828,-8.828 h -97.103 c -4.875,0 -8.828,3.953 -8.828,8.828 v 8.828 c 0,4.875 3.953,8.828 8.828,8.828 h 97.103 c -4.877,0 -8.828,-3.953 -8.828,-8.828 z"
       id="path14"
       inkscape:connector-curvature="0" /><path
       id="path18"
       d="M336.862,364.815l-16.204-17.677c-1.672-1.824-4.032-2.862-6.507-2.862h-44.909  c-4.875,0-8.828-3.953-8.828-8.828v-89.177c0-9.474,3.01-18.919,9.385-25.928c0.041-0.044,0.081-0.089,0.121-0.134l48.113-52.486  H204c-3.84,0-5.848,4.565-3.254,7.396l41.332,45.09c0.041,0.044,0.082,0.089,0.122,0.134c6.375,7.008,9.386,16.454,9.386,25.928  v89.176c0,4.875-3.953,8.828-8.828,8.828h-44.909c-2.474,0-4.835,1.038-6.507,2.862l-16.203,17.676  c-10.447,11.396-16.243,26.296-16.243,41.757v48.05c0,2.438,1.976,4.414,4.414,4.414H348.69c2.438,0,4.414-1.976,4.414-4.414V406.57  C353.103,391.111,347.308,376.212,336.862,364.815z"
       style="fill:#79bc37;fill-opacity:1" /><path
       style="fill:#588928;fill-opacity:1"
       d="m 200.747,175.121 41.332,45.09 c 0.041,0.044 0.082,0.089 0.122,0.134 6.375,7.008 9.385,16.454 9.385,25.928 v 51.06 l 6.905,-23.436 c 0.939,-3.188 1.572,-7.047 1.922,-11.164 V 249.27 c -0.35,-4.116 -0.983,-7.976 -1.922,-11.164 L 237.754,167.725 H 204 c -3.84,-0.001 -5.848,4.564 -3.253,7.396 z"
       id="path20"
       inkscape:connector-curvature="0" /><path
       style="fill:#588928;fill-opacity:1"
       d="m 229.517,406.57 c 0,-22.087 2.662,-43.37 7.458,-59.651 l 0.779,-2.644 h -39.905 c -2.474,0 -4.835,1.038 -6.507,2.862 l -16.203,17.676 c -10.447,11.398 -16.243,26.296 -16.243,41.757 v 48.051 c 0,2.438 1.976,4.414 4.414,4.414 h 66.207 z"
       id="path22"
       inkscape:connector-curvature="0" /></g><g
     id="g26" /><g
     id="g28" /><g
     id="g30" /><g
     id="g32" /><g
     id="g34" /><g
     id="g36" /><g
     id="g38" /><g
     id="g40" /><g
     id="g42" /><g
     id="g44" /><g
     id="g46" /><g
     id="g48" /><g
     id="g50" /><g
     id="g52" /><g
     id="g54" /></svg>